<?xml version="1.0" encoding="UTF-8"?>
<svg id="Layer_1" xmlns="http://www.w3.org/2000/svg" xmlns:xlink="http://www.w3.org/1999/xlink" version="1.1" viewBox="0 0 278 278">
  <!-- Generator: Adobe Illustrator 29.1.0, SVG Export Plug-In . SVG Version: 2.1.0 Build 142)  -->
  <defs>
    <style>
      .st0 {
        fill: url(#linear-gradient2);
      }

      .st1 {
        fill: url(#linear-gradient1);
      }

      .st2 {
        fill: url(#linear-gradient3);
      }

      .st3 {
        fill: url(#linear-gradient5);
      }

      .st4 {
        fill: url(#linear-gradient4);
      }

      .st5 {
        fill: url(#linear-gradient);
      }

      .st6 {
        fill: #fff;
      }
    </style>
    <linearGradient id="linear-gradient" x1="91.4" y1="246.7" x2="225.5" y2="64.6" gradientTransform="translate(0 277.9) scale(1 -1)" gradientUnits="userSpaceOnUse">
      <stop offset="0" stop-color="#00faff"/>
      <stop offset="1" stop-color="#8bff95"/>
    </linearGradient>
    <linearGradient id="linear-gradient1" x1="87.4" y1="243.7" x2="221.5" y2="61.7" gradientTransform="translate(0 277.9) scale(1 -1)" gradientUnits="userSpaceOnUse">
      <stop offset="0" stop-color="#00faff"/>
      <stop offset="1" stop-color="#8bff95"/>
    </linearGradient>
    <linearGradient id="linear-gradient2" x1="41.5" y1="209.9" x2="175.6" y2="27.8" gradientTransform="translate(0 277.9) scale(1 -1)" gradientUnits="userSpaceOnUse">
      <stop offset="0" stop-color="#00faff"/>
      <stop offset="1" stop-color="#8bff95"/>
    </linearGradient>
    <linearGradient id="linear-gradient3" x1="50.2" y1="216.3" x2="184.3" y2="34.3" gradientTransform="translate(0 277.9) scale(1 -1)" gradientUnits="userSpaceOnUse">
      <stop offset="0" stop-color="#00faff"/>
      <stop offset="1" stop-color="#8bff95"/>
    </linearGradient>
    <linearGradient id="linear-gradient4" x1="122.2" y1="269.3" x2="256.3" y2="87.3" gradientTransform="translate(0 277.9) scale(1 -1)" gradientUnits="userSpaceOnUse">
      <stop offset="0" stop-color="#00faff"/>
      <stop offset="1" stop-color="#8bff95"/>
    </linearGradient>
    <linearGradient id="linear-gradient5" x1="44.8" y1="212.3" x2="178.9" y2="30.3" gradientTransform="translate(0 277.9) scale(1 -1)" gradientUnits="userSpaceOnUse">
      <stop offset="0" stop-color="#00faff"/>
      <stop offset="1" stop-color="#8bff95"/>
    </linearGradient>
  </defs>
  <path d="M221.7.6H56.3C25.5.6.6,25.5.6,56.3v165.4c0,30.8,24.9,55.7,55.7,55.7h165.4c30.8,0,55.7-24.9,55.7-55.7V56.3c0-30.8-24.9-55.7-55.7-55.7Z"/>
  <path class="st6" d="M165.1,69.3c0,3.4,1.4,6.7,3.8,9.2,2.4,2.4,5.7,3.8,9.2,3.8,3.4,0,6.7-1.4,9.2-3.8,2.4-2.4,3.8-5.7,3.8-9.2,0-3.4-1.4-6.7-3.8-9.2-2.4-2.4-5.7-3.8-9.2-3.8-3.4,0-6.7,1.4-9.2,3.8-2.4,2.4-3.8,5.7-3.8,9.2Z"/>
  <path class="st6" d="M86.9,208.6c0,3.4,1.4,6.7,3.8,9.2,2.4,2.4,5.7,3.8,9.2,3.8,3.4,0,6.7-1.4,9.2-3.8,2.4-2.4,3.8-5.7,3.8-9.2,0-3.4-1.4-6.7-3.8-9.2-2.4-2.4-5.7-3.8-9.2-3.8-3.4,0-6.7,1.4-9.2,3.8-2.4,2.4-3.8,5.7-3.8,9.2Z"/>
  <path class="st6" d="M164.2,139c0,3.4,1.4,6.7,3.8,9.2,2.4,2.4,5.7,3.8,9.2,3.8,3.4,0,6.7-1.4,9.2-3.8,2.4-2.4,3.8-5.7,3.8-9.2,0-3.4-1.4-6.7-3.8-9.2-2.4-2.4-5.7-3.8-9.2-3.8-3.4,0-6.7,1.4-9.2,3.8-2.4,2.4-3.8,5.7-3.8,9.2Z"/>
  <path class="st6" d="M46.8,139c0,3.4,1.4,6.7,3.8,9.2,2.4,2.4,5.7,3.8,9.2,3.8,3.4,0,6.7-1.4,9.2-3.8,2.4-2.4,3.8-5.7,3.8-9.2,0-3.4-1.4-6.7-3.8-9.2-2.4-2.4-5.7-3.8-9.2-3.8-3.4,0-6.7,1.4-9.2,3.8-2.4,2.4-3.8,5.7-3.8,9.2Z"/>
  <path class="st5" d="M110.7,76.6c.5-.8,1.3-1.5,2.1-2,.9-.5,1.9-.8,2.9-.8h7.6c1,0,2,.3,2.9.8.9.5,1.6,1.2,2.1,2.1,1.2,1.7,2.8,3.2,4.7,4.1s3.9,1.5,6.1,1.5c1.9,0,3.8-.4,5.6-1.3,1.7-.8,3.3-2,4.5-3.5,1.2-1.5,2.1-3.3,2.6-5.2.5-1.9.5-3.9,0-5.8-.5-2.5-1.8-4.7-3.6-6.5s-4.1-3-6.6-3.4c-2.6-.5-5.2-.2-7.6.8-2.4,1-4.4,2.7-5.8,4.9-.6.8-1.3,1.4-2.2,1.9-.9.4-1.8.6-2.8.6h-7.3c-1,0-1.9-.2-2.8-.6-.9-.4-1.6-1.1-2.2-1.9-1.4-2.2-3.5-3.8-5.8-4.8-2.4-1-5-1.3-7.6-.8-2.5.5-4.8,1.7-6.6,3.5-1.8,1.8-3.1,4-3.6,6.5-.4,1.9-.4,3.9,0,5.8.5,1.9,1.3,3.7,2.5,5.2,1.2,1.5,2.8,2.7,4.5,3.5,1.7.8,3.7,1.3,5.6,1.3,2.1,0,4.2-.5,6.1-1.5,1.9-1,3.5-2.5,4.7-4.2Z"/>
  <path class="st1" d="M130.3,111.5c.5-.8,1.3-1.5,2.1-2,.9-.5,1.9-.8,2.9-.8h7.6c1,0,2,.3,2.9.8.9.5,1.6,1.2,2.1,2,1.2,1.7,2.8,3.2,4.7,4.1,1.9,1,3.9,1.5,6.1,1.5,1.9,0,3.8-.4,5.6-1.3,1.7-.8,3.3-2,4.5-3.5,1.2-1.5,2.1-3.3,2.6-5.2.5-1.9.5-3.9,0-5.8-.5-2.5-1.8-4.7-3.6-6.5-1.8-1.8-4.1-3-6.6-3.4-2.6-.5-5.2-.2-7.6.8-2.4,1-4.4,2.7-5.8,4.9-.6.8-1.3,1.4-2.2,1.9-.9.4-1.8.6-2.8.6h-7.3c-1,0-1.9-.2-2.8-.6-.9-.4-1.6-1.1-2.2-1.9-1.4-2.2-3.5-3.8-5.8-4.8s-5-1.3-7.6-.8c-2.5.5-4.8,1.7-6.6,3.5s-3.1,4-3.6,6.5c-.4,1.9-.4,3.9,0,5.8.5,1.9,1.3,3.7,2.5,5.2,1.2,1.5,2.8,2.7,4.5,3.5,1.7.8,3.7,1.3,5.6,1.3,2.1,0,4.2-.5,6.1-1.5,1.9-1,3.5-2.5,4.7-4.2Z"/>
  <path class="st0" d="M93.3,179.1c-.9.5-1.6,1.2-2.1,2-1.2,1.8-2.8,3.2-4.7,4.2-1.9,1-4,1.5-6.1,1.5-1.9,0-3.8-.4-5.6-1.3-1.7-.8-3.3-2-4.5-3.5-1.2-1.5-2.1-3.3-2.5-5.2-.5-1.9-.5-3.9,0-5.8.5-2.5,1.8-4.7,3.6-6.5,1.8-1.8,4.1-3,6.6-3.5,2.5-.5,5.2-.2,7.6.8,2.4,1,4.4,2.7,5.8,4.8.6.8,1.3,1.4,2.2,1.9.9.4,1.8.6,2.8.6h7.3c1,0,1.9-.2,2.8-.6.9-.4,1.6-1.1,2.2-1.9,1.4-2.2,3.4-3.9,5.8-4.9,2.4-1,5-1.3,7.6-.8,2.5.5,4.8,1.7,6.6,3.4.8.8,1.4,1.6,2,2.5.5.7,1.2,1.2,2,1.6.9.4,1.8.6,2.8.6h7.3c1,0,1.9-.2,2.8-.6.9-.4,1.6-1.1,2.2-1.9,1.4-2.2,3.4-3.9,5.8-4.9,2.4-1,5-1.3,7.6-.8,2.5.5,4.8,1.7,6.6,3.4,1.8,1.8,3.1,4,3.6,6.5.4,1.9.4,3.9,0,5.8-.5,1.9-1.3,3.7-2.6,5.2-1.2,1.5-2.8,2.7-4.5,3.5-1.7.8-3.7,1.3-5.6,1.3-2.1,0-4.2-.5-6.1-1.5-1.9-1-3.5-2.4-4.7-4.1-.5-.8-1.3-1.6-2.1-2.1-.9-.5-1.9-.8-2.9-.8h-7.6c-1,0-2,.3-2.9.8-.9.5-1.6,1.2-2.1,2-1.2,1.8-2.8,3.2-4.7,4.2-1.9,1-4,1.5-6.1,1.5-1.9,0-3.8-.4-5.6-1.3-1.7-.8-3.3-2-4.5-3.5-.4-.5-.8-1.1-1.2-1.7-.5-.5-1-1-1.6-1.3-.9-.5-1.9-.8-2.9-.8h-7.6c-1,0-2,.3-2.9.8Z"/>
  <path class="st2" d="M152,213.9c-.9.5-1.6,1.2-2.1,2-1.2,1.8-2.8,3.2-4.7,4.2-1.9,1-4,1.5-6.1,1.5-1.9,0-3.8-.4-5.6-1.3-1.7-.8-3.3-2-4.5-3.5-1.2-1.5-2.1-3.3-2.5-5.2-.5-1.9-.5-3.9,0-5.8.5-2.5,1.8-4.7,3.6-6.5,1.8-1.8,4.1-3,6.6-3.5,2.5-.5,5.2-.2,7.6.8s4.4,2.7,5.8,4.8c.6.8,1.3,1.4,2.2,1.9.9.4,1.8.6,2.8.6h7.3c1,0,1.9-.2,2.8-.6.9-.4,1.6-1.1,2.2-1.9,1.4-2.2,3.4-3.9,5.8-4.9,2.4-1,5-1.3,7.6-.8,2.5.5,4.8,1.7,6.6,3.4,1.8,1.8,3.1,4,3.6,6.5.4,1.9.4,3.9,0,5.8-.5,1.9-1.3,3.7-2.6,5.2-1.2,1.5-2.8,2.7-4.5,3.5-1.7.8-3.7,1.3-5.6,1.3-2.1,0-4.2-.5-6.1-1.5-1.9-1-3.5-2.4-4.7-4.1-.5-.8-1.3-1.6-2.1-2.1-.9-.5-1.9-.8-2.9-.8h-7.6c-1,0-2,.3-2.9.8Z"/>
  <path class="st4" d="M205.2,139c0,3.4,1.4,6.7,3.8,9.2,2.4,2.4,5.7,3.8,9.2,3.8,3.4,0,6.7-1.4,9.2-3.8,2.4-2.4,3.8-5.7,3.8-9.2,0-3.4-1.4-6.7-3.8-9.2-2.4-2.4-5.7-3.8-9.2-3.8-3.4,0-6.7,1.4-9.2,3.8-2.4,2.4-3.8,5.7-3.8,9.2Z"/>
  <path class="st3" d="M89.7,148.1c-2.4-2.4-3.8-5.7-3.8-9.2,0-3.4,1.4-6.7,3.8-9.2,2.4-2.4,5.7-3.8,9.2-3.8,3.4,0,6.7,1.4,9.2,3.8,2.4,2.4,3.8,5.7,3.8,9.2,0,3.4-1.4,6.7-3.8,9.2-2.4,2.4-5.7,3.8-9.2,3.8-3.4,0-6.7-1.4-9.2-3.8Z"/>
  <path class="st6" d="M184.6,104.1c0,3.4,1.4,6.7,3.8,9.2,2.4,2.4,5.7,3.8,9.2,3.8,3.4,0,6.7-1.4,9.2-3.8s3.8-5.7,3.8-9.2c0-3.4-1.4-6.7-3.8-9.2-2.4-2.4-5.7-3.8-9.2-3.8-3.4,0-6.7,1.4-9.2,3.8-2.4,2.4-3.8,5.7-3.8,9.2Z"/>
  <path class="st6" d="M67.4,104.1c0,3.4,1.4,6.7,3.8,9.2s5.7,3.8,9.2,3.8c3.4,0,6.7-1.4,9.2-3.8,2.4-2.4,3.8-5.7,3.8-9.2,0-3.4-1.4-6.7-3.8-9.2-2.4-2.4-5.7-3.8-9.2-3.8-3.4,0-6.7,1.4-9.2,3.8-2.4,2.4-3.8,5.7-3.8,9.2Z"/>
  <path class="st6" d="M184.6,173.8c0,3.4,1.4,6.7,3.8,9.2,2.4,2.4,5.7,3.8,9.2,3.8,3.4,0,6.7-1.4,9.2-3.8,2.4-2.4,3.8-5.7,3.8-9.2,0-3.4-1.4-6.7-3.8-9.2-2.4-2.4-5.7-3.8-9.2-3.8-3.4,0-6.7,1.4-9.2,3.8-2.4,2.4-3.8,5.7-3.8,9.2Z"/>
</svg>